<svg width="12" height="10" viewBox="0 0 12 10" fill="none" xmlns="http://www.w3.org/2000/svg">
<path d="M5.99078 4.46892L10.0842 0.220244C10.3671 -0.0734145 10.8246 -0.0734145 11.1046 0.220244L11.7848 0.926273C12.0677 1.21993 12.0677 1.69478 11.7848 1.98532L8.88628 5L11.7878 8.01156C12.0707 8.30522 12.0707 8.78007 11.7878 9.0706L11.1076 9.77976C10.8246 10.0734 10.3671 10.0734 10.0872 9.77976L5.99379 5.53108C5.70786 5.23743 5.70785 4.76257 5.99078 4.46892ZM0.211822 5.53108L4.30525 9.77976C4.58818 10.0734 5.04568 10.0734 5.3256 9.77976L6.00583 9.07373C6.28876 8.78007 6.28876 8.30522 6.00583 8.01468L3.10732 5L6.00884 1.98844C6.29177 1.69478 6.29177 1.21993 6.00884 0.929397L5.32861 0.220244C5.04568 -0.0734145 4.58818 -0.0734145 4.30826 0.220244L0.214831 4.46892C-0.0711068 4.76257 -0.0711068 5.23743 0.211822 5.53108Z" fill="#74777E"/>
</svg>
