<svg width="16" height="16" viewBox="0 0 16 16" fill="none" xmlns="http://www.w3.org/2000/svg">
<path d="M8.00039 5C6.34718 5 5.00024 6.34687 5.00024 8C5.00024 9.65313 6.34718 11 8.00039 11C9.65359 11 11.0005 9.65313 11.0005 8C11.0005 6.34687 9.65359 5 8.00039 5ZM15.7008 7.51562L12.7412 6.0375L13.7882 2.9C13.9288 2.475 13.5257 2.07188 13.1038 2.21563L9.96611 3.2625L8.48479 0.3C8.28478 -0.1 7.716 -0.1 7.51599 0.3L6.03779 3.25938L2.89702 2.2125C2.47199 2.07188 2.06885 2.475 2.21261 2.89687L3.25953 6.03438L0.300015 7.51562C-0.100005 7.71563 -0.100005 8.28437 0.300015 8.48438L3.25953 9.9625L2.21261 13.1031C2.07198 13.5281 2.47512 13.9313 2.89702 13.7875L6.03467 12.7406L7.51286 15.7C7.71287 16.1 8.28165 16.1 8.48166 15.7L9.95986 12.7406L13.0975 13.7875C13.5225 13.9281 13.9257 13.525 13.7819 13.1031L12.735 9.96562L15.6945 8.4875C16.1008 8.28438 16.1008 7.71563 15.7008 7.51562V7.51562ZM10.8287 10.8281C9.2692 12.3875 6.73158 12.3875 5.17213 10.8281C3.61268 9.26875 3.61268 6.73125 5.17213 5.17188C6.73158 3.6125 9.2692 3.6125 10.8287 5.17188C12.3881 6.73125 12.3881 9.26875 10.8287 10.8281Z" fill="white"/>
</svg>
