<svg width="116" height="128" viewBox="0 0 116 128" fill="none" xmlns="http://www.w3.org/2000/svg">
<path d="M43.1708 113.961L29.4895 100.195C29.4045 100.11 29.4045 99.8549 29.4895 99.77L43.1708 86.0886C43.2558 86.0037 43.5108 86.0037 43.5957 86.0886L57.2771 99.77C57.362 99.8549 57.362 100.11 57.2771 100.195L43.5957 113.961C43.5108 114.046 43.3408 114.046 43.1708 113.961Z" stroke="#1D4AB7" stroke-width="4" stroke-miterlimit="10"/>
<path d="M2.20156 0.800049H0.101562V2.90005H2.20156V0.800049Z" fill="black"/>
<path d="M2.20156 13.3H0.101562V15.4H2.20156V13.3Z" fill="black"/>
<path d="M2.20156 25.8H0.101562V27.9H2.20156V25.8Z" fill="black"/>
<path d="M2.20156 38.3H0.101562V40.4H2.20156V38.3Z" fill="black"/>
<path d="M2.20156 50.8H0.101562V52.9H2.20156V50.8Z" fill="black"/>
<path d="M2.20156 63.4001H0.101562V65.5002H2.20156V63.4001Z" fill="black"/>
<path d="M2.20156 75.9001H0.101562V78.0002H2.20156V75.9001Z" fill="black"/>
<path d="M2.20156 88.4001H0.101562V90.5002H2.20156V88.4001Z" fill="black"/>
<path d="M2.20156 100.9H0.101562V103H2.20156V100.9Z" fill="black"/>
<path d="M2.20156 113.4H0.101562V115.5H2.20156V113.4Z" fill="black"/>
<path d="M2.20156 125.9H0.101562V128H2.20156V125.9Z" fill="black"/>
<path d="M13.5023 0.800049H11.4023V2.90005H13.5023V0.800049Z" fill="black"/>
<path d="M13.5023 13.3H11.4023V15.4H13.5023V13.3Z" fill="black"/>
<path d="M13.5023 25.8H11.4023V27.9H13.5023V25.8Z" fill="black"/>
<path d="M13.5023 38.3H11.4023V40.4H13.5023V38.3Z" fill="black"/>
<path d="M13.5023 50.8H11.4023V52.9H13.5023V50.8Z" fill="black"/>
<path d="M13.5023 63.4001H11.4023V65.5002H13.5023V63.4001Z" fill="black"/>
<path d="M13.5023 75.9001H11.4023V78.0002H13.5023V75.9001Z" fill="black"/>
<path d="M13.5023 88.4001H11.4023V90.5002H13.5023V88.4001Z" fill="black"/>
<path d="M13.5023 100.9H11.4023V103H13.5023V100.9Z" fill="black"/>
<path d="M13.5023 113.4H11.4023V115.5H13.5023V113.4Z" fill="black"/>
<path d="M13.5023 125.9H11.4023V128H13.5023V125.9Z" fill="black"/>
<path d="M24.9008 0.800049H22.8008V2.90005H24.9008V0.800049Z" fill="black"/>
<path d="M24.9008 13.3H22.8008V15.4H24.9008V13.3Z" fill="black"/>
<path d="M24.9008 25.8H22.8008V27.9H24.9008V25.8Z" fill="black"/>
<path d="M24.9008 38.3H22.8008V40.4H24.9008V38.3Z" fill="black"/>
<path d="M24.9008 50.8H22.8008V52.9H24.9008V50.8Z" fill="black"/>
<path d="M24.9008 63.4001H22.8008V65.5002H24.9008V63.4001Z" fill="black"/>
<path d="M24.9008 75.9001H22.8008V78.0002H24.9008V75.9001Z" fill="black"/>
<path d="M24.9008 88.4001H22.8008V90.5002H24.9008V88.4001Z" fill="black"/>
<path d="M24.9008 100.9H22.8008V103H24.9008V100.9Z" fill="black"/>
<path d="M24.9008 113.4H22.8008V115.5H24.9008V113.4Z" fill="black"/>
<path d="M24.9008 125.9H22.8008V128H24.9008V125.9Z" fill="black"/>
<path d="M36.2016 0.800049H34.1016V2.90005H36.2016V0.800049Z" fill="black"/>
<path d="M36.2016 13.3H34.1016V15.4H36.2016V13.3Z" fill="black"/>
<path d="M36.2016 25.8H34.1016V27.9H36.2016V25.8Z" fill="black"/>
<path d="M36.2016 38.3H34.1016V40.4H36.2016V38.3Z" fill="black"/>
<path d="M36.2016 50.8H34.1016V52.9H36.2016V50.8Z" fill="black"/>
<path d="M36.2016 63.4001H34.1016V65.5002H36.2016V63.4001Z" fill="black"/>
<path d="M36.2016 75.9001H34.1016V78.0002H36.2016V75.9001Z" fill="black"/>
<path d="M36.2016 88.4001H34.1016V90.5002H36.2016V88.4001Z" fill="black"/>
<path d="M36.2016 100.9H34.1016V103H36.2016V100.9Z" fill="black"/>
<path d="M36.2016 113.4H34.1016V115.5H36.2016V113.4Z" fill="black"/>
<path d="M36.2016 125.9H34.1016V128H36.2016V125.9Z" fill="black"/>
<path d="M47.5023 0.800049H45.4023V2.90005H47.5023V0.800049Z" fill="black"/>
<path d="M47.5023 13.3H45.4023V15.4H47.5023V13.3Z" fill="black"/>
<path d="M47.5023 25.8H45.4023V27.9H47.5023V25.8Z" fill="black"/>
<path d="M47.5023 38.3H45.4023V40.4H47.5023V38.3Z" fill="black"/>
<path d="M47.5023 50.8H45.4023V52.9H47.5023V50.8Z" fill="black"/>
<path d="M47.5023 63.4001H45.4023V65.5002H47.5023V63.4001Z" fill="black"/>
<path d="M47.5023 75.9001H45.4023V78.0002H47.5023V75.9001Z" fill="black"/>
<path d="M47.5023 88.4001H45.4023V90.5002H47.5023V88.4001Z" fill="black"/>
<path d="M47.5023 100.9H45.4023V103H47.5023V100.9Z" fill="black"/>
<path d="M47.5023 113.4H45.4023V115.5H47.5023V113.4Z" fill="black"/>
<path d="M47.5023 125.9H45.4023V128H47.5023V125.9Z" fill="black"/>
<path d="M58.9008 0.800049H56.8008V2.90005H58.9008V0.800049Z" fill="black"/>
<path d="M58.9008 13.3H56.8008V15.4H58.9008V13.3Z" fill="black"/>
<path d="M58.9008 25.8H56.8008V27.9H58.9008V25.8Z" fill="black"/>
<path d="M58.9008 38.3H56.8008V40.4H58.9008V38.3Z" fill="black"/>
<path d="M58.9008 50.8H56.8008V52.9H58.9008V50.8Z" fill="black"/>
<path d="M58.9008 63.4001H56.8008V65.5002H58.9008V63.4001Z" fill="black"/>
<path d="M58.9008 75.9001H56.8008V78.0002H58.9008V75.9001Z" fill="black"/>
<path d="M58.9008 88.4001H56.8008V90.5002H58.9008V88.4001Z" fill="black"/>
<path d="M58.9008 100.9H56.8008V103H58.9008V100.9Z" fill="black"/>
<path d="M58.9008 113.4H56.8008V115.5H58.9008V113.4Z" fill="black"/>
<path d="M58.9008 125.9H56.8008V128H58.9008V125.9Z" fill="black"/>
<path d="M70.2016 0.800049H68.1016V2.90005H70.2016V0.800049Z" fill="black"/>
<path d="M70.2016 13.3H68.1016V15.4H70.2016V13.3Z" fill="black"/>
<path d="M70.2016 25.8H68.1016V27.9H70.2016V25.8Z" fill="black"/>
<path d="M70.2016 38.3H68.1016V40.4H70.2016V38.3Z" fill="black"/>
<path d="M70.2016 50.8H68.1016V52.9H70.2016V50.8Z" fill="black"/>
<path d="M70.2016 63.4001H68.1016V65.5002H70.2016V63.4001Z" fill="black"/>
<path d="M70.2016 75.9001H68.1016V78.0002H70.2016V75.9001Z" fill="black"/>
<path d="M70.2016 88.4001H68.1016V90.5002H70.2016V88.4001Z" fill="black"/>
<path d="M70.2016 100.9H68.1016V103H70.2016V100.9Z" fill="black"/>
<path d="M70.2016 113.4H68.1016V115.5H70.2016V113.4Z" fill="black"/>
<path d="M70.2016 125.9H68.1016V128H70.2016V125.9Z" fill="black"/>
<path d="M81.5023 0.800049H79.4023V2.90005H81.5023V0.800049Z" fill="black"/>
<path d="M81.5023 13.3H79.4023V15.4H81.5023V13.3Z" fill="black"/>
<path d="M81.5023 25.8H79.4023V27.9H81.5023V25.8Z" fill="black"/>
<path d="M81.5023 38.3H79.4023V40.4H81.5023V38.3Z" fill="black"/>
<path d="M81.5023 50.8H79.4023V52.9H81.5023V50.8Z" fill="black"/>
<path d="M81.5023 63.4001H79.4023V65.5002H81.5023V63.4001Z" fill="black"/>
<path d="M81.5023 75.9001H79.4023V78.0002H81.5023V75.9001Z" fill="black"/>
<path d="M81.5023 88.4001H79.4023V90.5002H81.5023V88.4001Z" fill="black"/>
<path d="M81.5023 100.9H79.4023V103H81.5023V100.9Z" fill="black"/>
<path d="M81.5023 113.4H79.4023V115.5H81.5023V113.4Z" fill="black"/>
<path d="M81.5023 125.9H79.4023V128H81.5023V125.9Z" fill="black"/>
<path d="M92.8031 0.800049H90.7031V2.90005H92.8031V0.800049Z" fill="black"/>
<path d="M92.8031 13.3H90.7031V15.4H92.8031V13.3Z" fill="black"/>
<path d="M92.8031 25.8H90.7031V27.9H92.8031V25.8Z" fill="black"/>
<path d="M92.8031 38.3H90.7031V40.4H92.8031V38.3Z" fill="black"/>
<path d="M92.8031 50.8H90.7031V52.9H92.8031V50.8Z" fill="black"/>
<path d="M92.8031 63.4001H90.7031V65.5002H92.8031V63.4001Z" fill="black"/>
<path d="M92.8031 75.9001H90.7031V78.0002H92.8031V75.9001Z" fill="black"/>
<path d="M92.8031 88.4001H90.7031V90.5002H92.8031V88.4001Z" fill="black"/>
<path d="M92.8031 100.9H90.7031V103H92.8031V100.9Z" fill="black"/>
<path d="M92.8031 113.4H90.7031V115.5H92.8031V113.4Z" fill="black"/>
<path d="M92.8031 125.9H90.7031V128H92.8031V125.9Z" fill="black"/>
<path d="M104.202 0.800049H102.102V2.90005H104.202V0.800049Z" fill="black"/>
<path d="M104.202 13.3H102.102V15.4H104.202V13.3Z" fill="black"/>
<path d="M104.202 25.8H102.102V27.9H104.202V25.8Z" fill="black"/>
<path d="M104.202 38.3H102.102V40.4H104.202V38.3Z" fill="black"/>
<path d="M104.202 50.8H102.102V52.9H104.202V50.8Z" fill="black"/>
<path d="M104.202 63.4001H102.102V65.5002H104.202V63.4001Z" fill="black"/>
<path d="M104.202 75.9001H102.102V78.0002H104.202V75.9001Z" fill="black"/>
<path d="M104.202 88.4001H102.102V90.5002H104.202V88.4001Z" fill="black"/>
<path d="M104.202 100.9H102.102V103H104.202V100.9Z" fill="black"/>
<path d="M104.202 113.4H102.102V115.5H104.202V113.4Z" fill="black"/>
<path d="M104.202 125.9H102.102V128H104.202V125.9Z" fill="black"/>
<path d="M115.502 0.800049H113.402V2.90005H115.502V0.800049Z" fill="black"/>
<path d="M115.502 13.3H113.402V15.4H115.502V13.3Z" fill="black"/>
<path d="M115.502 25.8H113.402V27.9H115.502V25.8Z" fill="black"/>
<path d="M115.502 38.3H113.402V40.4H115.502V38.3Z" fill="black"/>
<path d="M115.502 50.8H113.402V52.9H115.502V50.8Z" fill="black"/>
<path d="M115.502 63.4001H113.402V65.5002H115.502V63.4001Z" fill="black"/>
<path d="M115.502 75.9001H113.402V78.0002H115.502V75.9001Z" fill="black"/>
<path d="M115.502 88.4001H113.402V90.5002H115.502V88.4001Z" fill="black"/>
<path d="M115.502 100.9H113.402V103H115.502V100.9Z" fill="black"/>
<path d="M115.502 113.4H113.402V115.5H115.502V113.4Z" fill="black"/>
<path d="M115.502 125.9H113.402V128H115.502V125.9Z" fill="black"/>
</svg>
