<svg width="413" height="246" viewBox="0 0 413 246" fill="none" xmlns="http://www.w3.org/2000/svg">
<path d="M258.839 227.14C258.839 231.035 255.568 234.315 251.683 234.315C247.799 234.315 244.527 231.035 244.527 227.14C244.527 223.245 247.799 219.965 251.683 219.965C255.568 219.965 258.839 223.04 258.839 227.14Z" stroke="#DEE6FE" stroke-width="1.0345" stroke-miterlimit="10" stroke-linecap="round" stroke-linejoin="round"/>
<path d="M378.039 124.845C381.991 124.845 385.195 121.633 385.195 117.67C385.195 113.707 381.991 110.495 378.039 110.495C374.087 110.495 370.883 113.707 370.883 117.67C370.883 121.633 374.087 124.845 378.039 124.845Z" stroke="#DEE6FE" stroke-width="2" stroke-miterlimit="10" stroke-linecap="round" stroke-linejoin="round"/>
<path d="M31.2813 108.65C31.2813 113.98 26.9877 118.285 21.6719 118.285C16.3561 118.285 12.0625 113.98 12.0625 108.65C12.0625 103.32 16.3561 99.0151 21.6719 99.0151C26.9877 99.0151 31.2813 103.32 31.2813 108.65Z" fill="#DEE6FE"/>
<path d="M340.625 30.955C344.238 30.955 347.167 28.0179 347.167 24.395C347.167 20.772 344.238 17.835 340.625 17.835C337.011 17.835 334.082 20.772 334.082 24.395C334.082 28.0179 337.011 30.955 340.625 30.955Z" fill="#DEE6FE"/>
</svg>
