<svg width="186" height="205" viewBox="0 0 186 205" fill="none" xmlns="http://www.w3.org/2000/svg">
<path d="M3.95719 0.772217H0.601562V4.12785H3.95719V0.772217Z" fill="#B9B9B9"/>
<path d="M3.95719 20.7463H0.601562V24.102H3.95719V20.7463Z" fill="#B9B9B9"/>
<path d="M3.95719 40.7202H0.601562V44.0758H3.95719V40.7202Z" fill="#B9B9B9"/>
<path d="M3.95719 60.6943H0.601562V64.05H3.95719V60.6943Z" fill="#B9B9B9"/>
<path d="M3.95719 80.6682H0.601562V84.0238H3.95719V80.6682Z" fill="#B9B9B9"/>
<path d="M3.95719 100.802H0.601562V104.158H3.95719V100.802Z" fill="#B9B9B9"/>
<path d="M3.95719 120.776H0.601562V124.132H3.95719V120.776Z" fill="#B9B9B9"/>
<path d="M3.95719 140.75H0.601562V144.106H3.95719V140.75Z" fill="#B9B9B9"/>
<path d="M3.95719 160.724H0.601562V164.08H3.95719V160.724Z" fill="#B9B9B9"/>
<path d="M3.95719 180.698H0.601562V184.054H3.95719V180.698Z" fill="#B9B9B9"/>
<path d="M3.95719 200.672H0.601562V204.028H3.95719V200.672Z" fill="#B9B9B9"/>
<path d="M22.0119 0.772217H18.6562V4.12785H22.0119V0.772217Z" fill="#B9B9B9"/>
<path d="M22.0119 20.7463H18.6562V24.102H22.0119V20.7463Z" fill="#B9B9B9"/>
<path d="M22.0119 40.7202H18.6562V44.0758H22.0119V40.7202Z" fill="#B9B9B9"/>
<path d="M22.0119 60.6943H18.6562V64.05H22.0119V60.6943Z" fill="#B9B9B9"/>
<path d="M22.0119 80.6682H18.6562V84.0238H22.0119V80.6682Z" fill="#B9B9B9"/>
<path d="M22.0119 100.802H18.6562V104.158H22.0119V100.802Z" fill="#B9B9B9"/>
<path d="M22.0119 120.776H18.6562V124.132H22.0119V120.776Z" fill="#B9B9B9"/>
<path d="M22.0119 140.75H18.6562V144.106H22.0119V140.75Z" fill="#B9B9B9"/>
<path d="M22.0119 160.724H18.6562V164.08H22.0119V160.724Z" fill="#B9B9B9"/>
<path d="M22.0119 180.698H18.6562V184.054H22.0119V180.698Z" fill="#B9B9B9"/>
<path d="M22.0119 200.672H18.6562V204.028H22.0119V200.672Z" fill="#B9B9B9"/>
<path d="M40.2306 0.772217H36.875V4.12785H40.2306V0.772217Z" fill="#B9B9B9"/>
<path d="M40.2306 20.7463H36.875V24.102H40.2306V20.7463Z" fill="#B9B9B9"/>
<path d="M40.2306 40.7202H36.875V44.0758H40.2306V40.7202Z" fill="#B9B9B9"/>
<path d="M40.2306 60.6943H36.875V64.05H40.2306V60.6943Z" fill="#B9B9B9"/>
<path d="M40.2306 80.6682H36.875V84.0238H40.2306V80.6682Z" fill="#B9B9B9"/>
<path d="M40.2306 100.802H36.875V104.158H40.2306V100.802Z" fill="#B9B9B9"/>
<path d="M40.2306 120.776H36.875V124.132H40.2306V120.776Z" fill="#B9B9B9"/>
<path d="M40.2306 140.75H36.875V144.106H40.2306V140.75Z" fill="#B9B9B9"/>
<path d="M40.2306 160.724H36.875V164.08H40.2306V160.724Z" fill="#B9B9B9"/>
<path d="M40.2306 180.698H36.875V184.054H40.2306V180.698Z" fill="#B9B9B9"/>
<path d="M40.2306 200.672H36.875V204.028H40.2306V200.672Z" fill="#B9B9B9"/>
<path d="M58.2853 0.772217H54.9297V4.12785H58.2853V0.772217Z" fill="#B9B9B9"/>
<path d="M58.2853 20.7463H54.9297V24.102H58.2853V20.7463Z" fill="#B9B9B9"/>
<path d="M58.2853 40.7202H54.9297V44.0758H58.2853V40.7202Z" fill="#B9B9B9"/>
<path d="M58.2853 60.6943H54.9297V64.05H58.2853V60.6943Z" fill="#B9B9B9"/>
<path d="M58.2853 80.6682H54.9297V84.0238H58.2853V80.6682Z" fill="#B9B9B9"/>
<path d="M58.2853 100.802H54.9297V104.158H58.2853V100.802Z" fill="#B9B9B9"/>
<path d="M58.2853 120.776H54.9297V124.132H58.2853V120.776Z" fill="#B9B9B9"/>
<path d="M58.2853 140.75H54.9297V144.106H58.2853V140.75Z" fill="#B9B9B9"/>
<path d="M58.2853 160.724H54.9297V164.08H58.2853V160.724Z" fill="#B9B9B9"/>
<path d="M58.2853 180.698H54.9297V184.054H58.2853V180.698Z" fill="#B9B9B9"/>
<path d="M58.2853 200.672H54.9297V204.028H58.2853V200.672Z" fill="#B9B9B9"/>
<path d="M76.3439 0.772217H72.9883V4.12785H76.3439V0.772217Z" fill="#B9B9B9"/>
<path d="M76.3439 20.7463H72.9883V24.102H76.3439V20.7463Z" fill="#B9B9B9"/>
<path d="M76.3439 40.7202H72.9883V44.0758H76.3439V40.7202Z" fill="#B9B9B9"/>
<path d="M76.3439 60.6943H72.9883V64.05H76.3439V60.6943Z" fill="#B9B9B9"/>
<path d="M76.3439 80.6682H72.9883V84.0238H76.3439V80.6682Z" fill="#B9B9B9"/>
<path d="M76.3439 100.802H72.9883V104.158H76.3439V100.802Z" fill="#B9B9B9"/>
<path d="M76.3439 120.776H72.9883V124.132H76.3439V120.776Z" fill="#B9B9B9"/>
<path d="M76.3439 140.75H72.9883V144.106H76.3439V140.75Z" fill="#B9B9B9"/>
<path d="M76.3439 160.724H72.9883V164.08H76.3439V160.724Z" fill="#B9B9B9"/>
<path d="M76.3439 180.698H72.9883V184.054H76.3439V180.698Z" fill="#B9B9B9"/>
<path d="M76.3439 200.672H72.9883V204.028H76.3439V200.672Z" fill="#B9B9B9"/>
<path d="M94.5587 0.772217H91.2031V4.12785H94.5587V0.772217Z" fill="#B9B9B9"/>
<path d="M94.5587 20.7463H91.2031V24.102H94.5587V20.7463Z" fill="#B9B9B9"/>
<path d="M94.5587 40.7202H91.2031V44.0758H94.5587V40.7202Z" fill="#B9B9B9"/>
<path d="M94.5587 60.6943H91.2031V64.05H94.5587V60.6943Z" fill="#B9B9B9"/>
<path d="M94.5587 80.6682H91.2031V84.0238H94.5587V80.6682Z" fill="#B9B9B9"/>
<path d="M94.5587 100.802H91.2031V104.158H94.5587V100.802Z" fill="#B9B9B9"/>
<path d="M94.5587 120.776H91.2031V124.132H94.5587V120.776Z" fill="#B9B9B9"/>
<path d="M94.5587 140.75H91.2031V144.106H94.5587V140.75Z" fill="#B9B9B9"/>
<path d="M94.5587 160.724H91.2031V164.08H94.5587V160.724Z" fill="#B9B9B9"/>
<path d="M94.5587 180.698H91.2031V184.054H94.5587V180.698Z" fill="#B9B9B9"/>
<path d="M94.5587 200.672H91.2031V204.028H94.5587V200.672Z" fill="#B9B9B9"/>
<path d="M112.617 0.772217H109.262V4.12785H112.617V0.772217Z" fill="#B9B9B9"/>
<path d="M112.617 20.7463H109.262V24.102H112.617V20.7463Z" fill="#B9B9B9"/>
<path d="M112.617 40.7202H109.262V44.0758H112.617V40.7202Z" fill="#B9B9B9"/>
<path d="M112.617 60.6943H109.262V64.05H112.617V60.6943Z" fill="#B9B9B9"/>
<path d="M112.617 80.6682H109.262V84.0238H112.617V80.6682Z" fill="#B9B9B9"/>
<path d="M112.617 100.802H109.262V104.158H112.617V100.802Z" fill="#B9B9B9"/>
<path d="M112.617 120.776H109.262V124.132H112.617V120.776Z" fill="#B9B9B9"/>
<path d="M112.617 140.75H109.262V144.106H112.617V140.75Z" fill="#B9B9B9"/>
<path d="M112.617 160.724H109.262V164.08H112.617V160.724Z" fill="#B9B9B9"/>
<path d="M112.617 180.698H109.262V184.054H112.617V180.698Z" fill="#B9B9B9"/>
<path d="M112.617 200.672H109.262V204.028H112.617V200.672Z" fill="#B9B9B9"/>
<path d="M130.672 0.772217H127.316V4.12785H130.672V0.772217Z" fill="#B9B9B9"/>
<path d="M130.672 20.7463H127.316V24.102H130.672V20.7463Z" fill="#B9B9B9"/>
<path d="M130.672 40.7202H127.316V44.0758H130.672V40.7202Z" fill="#B9B9B9"/>
<path d="M130.672 60.6943H127.316V64.05H130.672V60.6943Z" fill="#B9B9B9"/>
<path d="M130.672 80.6682H127.316V84.0238H130.672V80.6682Z" fill="#B9B9B9"/>
<path d="M130.672 100.802H127.316V104.158H130.672V100.802Z" fill="#B9B9B9"/>
<path d="M130.672 120.776H127.316V124.132H130.672V120.776Z" fill="#B9B9B9"/>
<path d="M130.672 140.75H127.316V144.106H130.672V140.75Z" fill="#B9B9B9"/>
<path d="M130.672 160.724H127.316V164.08H130.672V160.724Z" fill="#B9B9B9"/>
<path d="M130.672 180.698H127.316V184.054H130.672V180.698Z" fill="#B9B9B9"/>
<path d="M130.672 200.672H127.316V204.028H130.672V200.672Z" fill="#B9B9B9"/>
<path d="M148.731 0.772217H145.375V4.12785H148.731V0.772217Z" fill="#B9B9B9"/>
<path d="M148.731 20.7463H145.375V24.102H148.731V20.7463Z" fill="#B9B9B9"/>
<path d="M148.731 40.7202H145.375V44.0758H148.731V40.7202Z" fill="#B9B9B9"/>
<path d="M148.731 60.6943H145.375V64.05H148.731V60.6943Z" fill="#B9B9B9"/>
<path d="M148.731 80.6682H145.375V84.0238H148.731V80.6682Z" fill="#B9B9B9"/>
<path d="M148.731 100.802H145.375V104.158H148.731V100.802Z" fill="#B9B9B9"/>
<path d="M148.731 120.776H145.375V124.132H148.731V120.776Z" fill="#B9B9B9"/>
<path d="M148.731 140.75H145.375V144.106H148.731V140.75Z" fill="#B9B9B9"/>
<path d="M148.731 160.724H145.375V164.08H148.731V160.724Z" fill="#B9B9B9"/>
<path d="M148.731 180.698H145.375V184.054H148.731V180.698Z" fill="#B9B9B9"/>
<path d="M148.731 200.672H145.375V204.028H148.731V200.672Z" fill="#B9B9B9"/>
<path d="M166.945 0.772217H163.59V4.12785H166.945V0.772217Z" fill="#B9B9B9"/>
<path d="M166.945 20.7463H163.59V24.102H166.945V20.7463Z" fill="#B9B9B9"/>
<path d="M166.945 40.7202H163.59V44.0758H166.945V40.7202Z" fill="#B9B9B9"/>
<path d="M166.945 60.6943H163.59V64.05H166.945V60.6943Z" fill="#B9B9B9"/>
<path d="M166.945 80.6682H163.59V84.0238H166.945V80.6682Z" fill="#B9B9B9"/>
<path d="M166.945 100.802H163.59V104.158H166.945V100.802Z" fill="#B9B9B9"/>
<path d="M166.945 120.776H163.59V124.132H166.945V120.776Z" fill="#B9B9B9"/>
<path d="M166.945 140.75H163.59V144.106H166.945V140.75Z" fill="#B9B9B9"/>
<path d="M166.945 160.724H163.59V164.08H166.945V160.724Z" fill="#B9B9B9"/>
<path d="M166.945 180.698H163.59V184.054H166.945V180.698Z" fill="#B9B9B9"/>
<path d="M166.945 200.672H163.59V204.028H166.945V200.672Z" fill="#B9B9B9"/>
<path d="M185 0.772217H181.645V4.12785H185V0.772217Z" fill="#B9B9B9"/>
<path d="M185 20.7463H181.645V24.102H185V20.7463Z" fill="#B9B9B9"/>
<path d="M185 40.7202H181.645V44.0758H185V40.7202Z" fill="#B9B9B9"/>
<path d="M185 60.6943H181.645V64.05H185V60.6943Z" fill="#B9B9B9"/>
<path d="M185 80.6682H181.645V84.0238H185V80.6682Z" fill="#B9B9B9"/>
<path d="M185 100.802H181.645V104.158H185V100.802Z" fill="#B9B9B9"/>
<path d="M185 120.776H181.645V124.132H185V120.776Z" fill="#B9B9B9"/>
<path d="M185 140.75H181.645V144.106H185V140.75Z" fill="#B9B9B9"/>
<path d="M185 160.724H181.645V164.08H185V160.724Z" fill="#B9B9B9"/>
<path d="M185 180.698H181.645V184.054H185V180.698Z" fill="#B9B9B9"/>
<path d="M185 200.672H181.645V204.028H185V200.672Z" fill="#B9B9B9"/>
</svg>
