<svg width="24" height="24" viewBox="0 0 24 24" fill="none" xmlns="http://www.w3.org/2000/svg">
<g clip-path="url(#clip0)">
<path d="M19.7933 1.21875H4.257C1.9096 1.21875 0 3.12414 0 5.46623V21.3511C0 21.9136 0.341307 22.4274 0.869931 22.66C1.05688 22.7422 1.25463 22.7821 1.45111 22.7821C1.80267 22.7821 2.14947 22.6539 2.41808 22.4095C4.36558 20.6473 6.88602 19.677 9.51595 19.677H9.5165L19.796 19.6777C22.1141 19.6777 24.0001 17.7877 24.0001 15.4645V5.41606C23.9999 3.10162 22.1128 1.21875 19.7933 1.21875V1.21875ZM22.5937 15.4645C22.5937 17.0123 21.3387 18.2713 19.796 18.2713L9.5165 18.2706H9.51577C6.53684 18.2706 3.68077 19.3703 1.47289 21.368C1.46612 21.3742 1.44689 21.3773 1.43609 21.3727C1.42034 21.3658 1.40954 21.353 1.40624 21.3464V5.46623C1.40624 3.89959 2.68505 2.62518 4.25682 2.62518H19.7931C21.3372 2.62518 22.5935 3.87707 22.5935 5.41606V15.4645H22.5937Z" fill="#fff"/>
<path d="M5.99072 7.73401H8.26123C8.6496 7.73401 8.96436 7.41925 8.96436 7.03088C8.96436 6.6427 8.6496 6.32776 8.26123 6.32776H5.99072C5.00397 6.32776 4.20142 7.13049 4.20142 8.11707V13.8214C4.20142 14.2097 4.51617 14.5245 4.90454 14.5245C5.29272 14.5245 5.60767 14.2097 5.60767 13.8214V12.1053H8.26123C8.6496 12.1053 8.96436 11.7905 8.96436 11.4022C8.96436 11.0138 8.6496 10.699 8.26123 10.699H5.60767V8.11707C5.60767 7.90594 5.77942 7.73401 5.99072 7.73401Z" fill="#fff"/>
<path d="M12.0087 6.32776C10.6956 6.32776 9.6272 7.39618 9.6272 8.70941V13.8215C9.6272 14.2097 9.94196 14.5247 10.3303 14.5247C10.7187 14.5247 11.0334 14.2097 11.0334 13.8215V12.0668H12.9839V13.8215C12.9839 14.2097 13.2988 14.5247 13.687 14.5247C14.0754 14.5247 14.3901 14.2097 14.3901 13.8215V8.70941C14.3901 7.39618 13.3219 6.32776 12.0087 6.32776ZM11.0334 10.6606V8.70941C11.0334 8.17163 11.4709 7.73401 12.0087 7.73401C12.5464 7.73401 12.9841 8.17163 12.9841 8.70941V10.6606H11.0334Z" fill="#fff"/>
<path d="M20.6307 13.1184H20.0737V8.70941C20.0737 7.39618 19.0054 6.32776 17.6922 6.32776C16.379 6.32776 15.3105 7.39618 15.3105 8.70941V12.143C15.3105 13.4562 16.379 14.5247 17.6922 14.5247H20.6307C21.0189 14.5247 21.3338 14.2097 21.3338 13.8215C21.3338 13.4332 21.0189 13.1184 20.6307 13.1184ZM16.717 12.143V8.70941C16.717 8.17163 17.1544 7.73401 17.6922 7.73401C18.23 7.73401 18.6674 8.17163 18.6674 8.70941V13.1184H17.6922C17.1544 13.1184 16.717 12.6808 16.717 12.143Z" fill="#fff"/>
</g>
<defs>
<clipPath id="clip0">
<rect width="24" height="24" fill="white"/>
</clipPath>
</defs>
</svg>
