<svg width="70" height="58" viewBox="0 0 70 58" fill="none" xmlns="http://www.w3.org/2000/svg">
<path d="M69.4331 45.3702C65.9104 39.3028 60.2689 34.7521 53.5936 32.5931C56.7915 30.6903 59.2764 27.7903 60.6665 24.3384C62.0566 20.8866 62.275 17.0738 61.2883 13.4858C60.3016 9.89777 58.1642 6.73289 55.2045 4.47726C52.2449 2.22163 48.6265 1 44.9053 1C41.1841 1 37.5657 2.22163 34.606 4.47726C31.6464 6.73289 29.509 9.89777 28.5223 13.4858C27.5356 17.0738 27.754 20.8866 29.1441 24.3384C30.5342 27.7903 33.0191 30.6903 36.217 32.5931C29.5418 34.7521 23.9005 39.3026 20.3778 45.3697C20.2117 45.6567 20.1242 45.9823 20.1239 46.3138C20.1237 46.6454 20.2108 46.9711 20.3764 47.2584C20.5421 47.5456 20.7804 47.7841 21.0675 47.9499C21.3546 48.1157 21.6803 48.2031 22.0118 48.2031L67.7991 48.2035C68.1306 48.2035 68.4563 48.1162 68.7435 47.9504C69.0305 47.7846 69.2689 47.5461 69.4345 47.2589C69.6002 46.9716 69.6873 46.6459 69.687 46.3143C69.6868 45.9828 69.5992 45.6571 69.4331 45.3702L69.4331 45.3702Z" fill="url(#paint0_linear)"/>
<g filter="url(#filter0_bd)">
<path d="M51.3092 52.1667C47.7865 46.0993 42.145 41.5486 35.4696 39.3896C38.6676 37.4868 41.1524 34.5868 42.5425 31.1349C43.9326 27.6831 44.1511 23.8703 43.1644 20.2823C42.1776 16.6943 40.0403 13.5294 37.0806 11.2738C34.1209 9.01814 30.5026 7.79651 26.7814 7.79651C23.0601 7.79651 19.4418 9.01814 16.4821 11.2738C13.5224 13.5294 11.3851 16.6943 10.3984 20.2823C9.41164 23.8703 9.6301 27.6831 11.0202 31.1349C12.4103 34.5868 14.8951 37.4868 18.0931 39.3896C11.4179 41.5486 5.77657 46.0991 2.25383 52.1662C2.08778 52.4532 2.00024 52.7788 2 53.1103C1.99976 53.4419 2.08684 53.7677 2.25248 54.0549C2.41812 54.3421 2.65647 54.5806 2.94356 54.7464C3.23065 54.9123 3.55635 54.9996 3.88789 54.9996L49.6752 55C50.0067 55.0001 50.3324 54.9128 50.6195 54.7469C50.9066 54.5811 51.145 54.3426 51.3106 54.0554C51.4763 53.7681 51.5633 53.4424 51.5631 53.1108C51.5628 52.7793 51.4753 52.4536 51.3092 52.1667L51.3092 52.1667Z" fill="url(#paint1_linear)"/>
<path d="M51.3091 52.1667L51.3092 52.1667L51.3091 52.1667Z" stroke="url(#paint2_linear)"/>
</g>
<defs>
<filter id="filter0_bd" x="-3" y="0.796509" width="62.5631" height="59.2035" filterUnits="userSpaceOnUse" color-interpolation-filters="sRGB">
<feFlood flood-opacity="0" result="BackgroundImageFix"/>
<feGaussianBlur in="BackgroundImage" stdDeviation="2.5"/>
<feComposite in2="SourceAlpha" operator="in" result="effect1_backgroundBlur"/>
<feColorMatrix in="SourceAlpha" type="matrix" values="0 0 0 0 0 0 0 0 0 0 0 0 0 0 0 0 0 0 127 0"/>
<feOffset dx="3" dy="-2"/>
<feGaussianBlur stdDeviation="2.5"/>
<feColorMatrix type="matrix" values="0 0 0 0 0.0666667 0 0 0 0 0.172549 0 0 0 0 0.431373 0 0 0 0.2 0"/>
<feBlend mode="normal" in2="effect1_backgroundBlur" result="effect2_dropShadow"/>
<feBlend mode="normal" in="SourceGraphic" in2="effect2_dropShadow" result="shape"/>
</filter>
<linearGradient id="paint0_linear" x1="23.7607" y1="48.2051" x2="76.6222" y2="16.4883" gradientUnits="userSpaceOnUse">
<stop stop-color="#112C6E"/>
<stop offset="1" stop-color="#2963D8"/>
</linearGradient>
<linearGradient id="paint1_linear" x1="-4.43209" y1="59.5326" x2="56.9879" y2="22.2779" gradientUnits="userSpaceOnUse">
<stop stop-color="#E0EAFF"/>
<stop offset="1" stop-color="#D8E5FF" stop-opacity="0.2"/>
</linearGradient>
<linearGradient id="paint2_linear" x1="-2.41832" y1="58.5258" x2="46.9191" y2="22.2779" gradientUnits="userSpaceOnUse">
<stop stop-color="white"/>
<stop offset="1" stop-color="white" stop-opacity="0"/>
</linearGradient>
</defs>
</svg>
