<svg width="52" height="60" viewBox="0 0 52 60" fill="none" xmlns="http://www.w3.org/2000/svg">
<path d="M0.982364 45.8688L24.7447 59.7302C25.0476 59.9068 25.3919 59.9999 25.7426 59.9999C26.0932 59.9999 26.4375 59.9068 26.7404 59.7302L50.5028 45.8688C50.8017 45.6944 51.0497 45.4447 51.2221 45.1446C51.3944 44.8445 51.4851 44.5044 51.4851 44.1584C51.4851 43.8123 51.3944 43.4722 51.2221 43.1721C51.0497 42.872 50.8017 42.6223 50.5028 42.4479L26.7404 28.5865C26.4375 28.4099 26.0932 28.3168 25.7426 28.3168C25.3919 28.3168 25.0476 28.4099 24.7447 28.5865L0.982364 42.4479C0.683433 42.6223 0.435428 42.872 0.263064 43.1721C0.0907013 43.4722 0 43.8123 0 44.1584C0 44.5044 0.0907013 44.8445 0.263064 45.1446C0.435428 45.4447 0.683433 45.6944 0.982364 45.8688Z" fill="#1E4396"/>
<path d="M0.982364 30.4232L24.7447 44.2846C25.0476 44.4613 25.3919 44.5544 25.7426 44.5544C26.0932 44.5544 26.4375 44.4613 26.7404 44.2846L50.5028 30.4232C50.8017 30.2488 51.0497 29.9991 51.2221 29.699C51.3944 29.3989 51.4851 29.0589 51.4851 28.7128C51.4851 28.3667 51.3944 28.0267 51.2221 27.7266C51.0497 27.4265 50.8017 27.1768 50.5028 27.0024L26.7404 13.141C26.4375 12.9643 26.0932 12.8712 25.7426 12.8712C25.3919 12.8712 25.0476 12.9643 24.7447 13.141L0.982364 27.0024C0.683433 27.1768 0.435428 27.4265 0.263064 27.7266C0.0907013 28.0267 0 28.3667 0 28.7128C0 29.0589 0.0907013 29.3989 0.263064 29.699C0.435428 29.9991 0.683433 30.2488 0.982364 30.4232Z" fill="#2354BA"/>
<path d="M24.9967 30.9815L1.23432 17.1201C1.01087 16.9898 0.825484 16.8031 0.696642 16.5788C0.567799 16.3545 0.5 16.1003 0.5 15.8416C0.5 15.5829 0.5678 15.3287 0.696642 15.1044C0.82548 14.88 1.01086 14.6934 1.2343 14.563C1.23431 14.563 1.23431 14.563 1.23432 14.563L24.9967 0.701652C25.2231 0.569588 25.4805 0.5 25.7426 0.5C26.0047 0.5 26.2621 0.569588 26.4885 0.701652L50.2508 14.563C50.4743 14.6934 50.6597 14.88 50.7885 15.1044C50.9173 15.3287 50.9851 15.5829 50.9851 15.8416C50.9851 16.1003 50.9173 16.3545 50.7885 16.5788C50.6597 16.8031 50.4743 16.9898 50.2508 17.1201L26.4885 30.9815C26.2621 31.1136 26.0047 31.1832 25.7426 31.1832C25.4805 31.1832 25.2231 31.1136 24.9967 30.9815Z" fill="url(#paint0_linear)" stroke="url(#paint1_linear)"/>
<defs>
<linearGradient id="paint0_linear" x1="-6.68153" y1="34.7255" x2="39.7115" y2="-8.82514" gradientUnits="userSpaceOnUse">
<stop stop-color="#E0EAFF"/>
<stop offset="1" stop-color="#D8E5FF" stop-opacity="0.2"/>
</linearGradient>
<linearGradient id="paint1_linear" x1="-4.58966" y1="34.0496" x2="29.8279" y2="-5.08445" gradientUnits="userSpaceOnUse">
<stop stop-color="white"/>
<stop offset="1" stop-color="white" stop-opacity="0"/>
</linearGradient>
</defs>
</svg>
