<svg width="16" height="16" viewBox="0 0 16 16" fill="none" xmlns="http://www.w3.org/2000/svg">
<path d="M15.6193 2.42724e-07H14.1152C14.0636 -5.79885e-05 14.0126 0.0103619 13.9652 0.0306281C13.9178 0.0508943 13.875 0.0805845 13.8394 0.117898C13.8038 0.155212 13.7762 0.199372 13.7581 0.247701C13.7401 0.296029 13.7321 0.347519 13.7345 0.399048L13.8614 3.02635C13.1236 2.15634 12.2052 1.45764 11.1701 0.978862C10.1351 0.50008 9.00817 0.252712 7.86786 0.253968C3.53229 0.253968 -0.00317039 3.7946 2.13347e-06 8.13301C0.00317466 12.4784 3.52468 16 7.86786 16C9.81613 16.0027 11.6956 15.2795 13.14 13.9711C13.1786 13.9366 13.2097 13.8945 13.2315 13.8475C13.2532 13.8005 13.2652 13.7495 13.2666 13.6977C13.2681 13.6459 13.2589 13.5944 13.2398 13.5462C13.2206 13.4981 13.1918 13.4544 13.1552 13.4178L12.0765 12.3384C12.0083 12.2701 11.9166 12.2303 11.8202 12.2271C11.7237 12.2238 11.6296 12.2574 11.5569 12.3209C10.7046 13.0713 9.64393 13.5439 8.51637 13.6757C7.38881 13.8074 6.24789 13.5922 5.24571 13.0586C4.24353 12.5249 3.42771 11.6983 2.907 10.6889C2.38629 9.67948 2.18543 8.53521 2.3312 7.40865C2.47697 6.28208 2.96244 5.22674 3.7229 4.38331C4.48335 3.53988 5.48267 2.94843 6.58761 2.68782C7.69256 2.4272 8.85065 2.5098 9.90748 2.9246C10.9643 3.3394 11.8697 4.06669 12.5029 5.00952L9.28186 4.85492C9.23036 4.85247 9.17891 4.86051 9.13061 4.87855C9.08231 4.8966 9.03818 4.92427 9.00089 4.95989C8.9636 4.99551 8.93393 5.03834 8.91368 5.08578C8.89343 5.13322 8.88301 5.18428 8.88307 5.23587V6.74095C8.88307 6.84198 8.92318 6.93888 8.99458 7.01032C9.06597 7.08177 9.16281 7.1219 9.26378 7.1219H15.6193C15.7203 7.1219 15.8171 7.08177 15.8885 7.01032C15.9599 6.93888 16 6.84198 16 6.74095V0.380952C16 0.279918 15.9599 0.183021 15.8885 0.111579C15.8171 0.0401362 15.7203 2.42724e-07 15.6193 2.42724e-07V2.42724e-07Z" fill="white"/>
</svg>
