<svg width="12" height="12" viewBox="0 0 12 12" fill="none" xmlns="http://www.w3.org/2000/svg">
<g clip-path="url(#clip0)">
<path d="M10.125 4.5V1.81055C10.125 1.61156 10.0526 1.42102 9.92369 1.28016L8.95131 0.219609C8.8224 0.0789844 8.64752 0 8.46512 0H2.5625C2.18287 0 1.875 0.335859 1.875 0.75V4.5C1.11553 4.5 0.5 5.17148 0.5 6V8.625C0.5 8.83219 0.653828 9 0.84375 9H1.875V11.25C1.875 11.6641 2.18287 12 2.5625 12H9.4375C9.81713 12 10.125 11.6641 10.125 11.25V9H11.1562C11.3462 9 11.5 8.83219 11.5 8.625V6C11.5 5.17148 10.8845 4.5 10.125 4.5ZM8.75 10.5H3.25V8.25H8.75V10.5ZM8.75 5.25H3.25V1.5H7.375V2.625C7.375 2.83219 7.52883 3 7.71875 3H8.75V5.25ZM9.78125 6.9375C9.49658 6.9375 9.26562 6.68555 9.26562 6.375C9.26562 6.06422 9.49658 5.8125 9.78125 5.8125C10.0659 5.8125 10.2969 6.06422 10.2969 6.375C10.2969 6.68555 10.0659 6.9375 9.78125 6.9375Z" fill="#74777E"/>
</g>
<defs>
<clipPath id="clip0">
<rect width="11" height="12" fill="white" transform="translate(0.5)"/>
</clipPath>
</defs>
</svg>
