<svg width="16" height="16" viewBox="0 0 16 16" fill="none" xmlns="http://www.w3.org/2000/svg">
<path d="M15.5556 9H13.3333V12L12.4444 11.3344L11.5556 12V9H9.33333C9.08889 9 8.88889 9.225 8.88889 9.5V15.5C8.88889 15.775 9.08889 16 9.33333 16H15.5556C15.8 16 16 15.775 16 15.5V9.5C16 9.225 15.8 9 15.5556 9ZM4.88889 7H11.1111C11.3556 7 11.5556 6.775 11.5556 6.5V0.5C11.5556 0.225 11.3556 0 11.1111 0H8.88889V3L8 2.33437L7.11111 3V0H4.88889C4.64444 0 4.44444 0.225 4.44444 0.5V6.5C4.44444 6.775 4.64444 7 4.88889 7ZM6.66667 9H4.44444V12L3.55556 11.3344L2.66667 12V9H0.444444C0.2 9 0 9.225 0 9.5V15.5C0 15.775 0.2 16 0.444444 16H6.66667C6.91111 16 7.11111 15.775 7.11111 15.5V9.5C7.11111 9.225 6.91111 9 6.66667 9Z" fill="#74777E"/>
</svg>
