<svg width="22" height="16" viewBox="0 0 22 16" fill="none" xmlns="http://www.w3.org/2000/svg">
<g clip-path="url(#clip0)">
<path d="M21.2622 5.28333C21.4247 5.15417 21.6663 5.275 21.6663 5.47917V14C21.6663 15.1042 20.7705 16 19.6663 16H2.33301C1.22884 16 0.333008 15.1042 0.333008 14V5.48333C0.333008 5.275 0.570508 5.15833 0.737174 5.2875C1.67051 6.0125 2.90801 6.93333 7.15801 10.0208C8.03717 10.6625 9.52051 12.0125 10.9997 12.0042C12.4872 12.0167 13.9997 10.6375 14.8455 10.0208C19.0955 6.93333 20.3288 6.00833 21.2622 5.28333ZM10.9997 10.6667C11.9663 10.6833 13.358 9.45 14.058 8.94167C19.5872 4.92917 20.008 4.57917 21.283 3.57917C21.5247 3.39167 21.6663 3.1 21.6663 2.79167V2C21.6663 0.895833 20.7705 0 19.6663 0H2.33301C1.22884 0 0.333008 0.895833 0.333008 2V2.79167C0.333008 3.1 0.474674 3.3875 0.716341 3.57917C1.99134 4.575 2.41217 4.92917 7.94134 8.94167C8.64134 9.45 10.033 10.6833 10.9997 10.6667Z" fill="white"/>
</g>
<defs>
<clipPath id="clip0">
<rect width="21.3333" height="16" fill="white" transform="translate(0.333008)"/>
</clipPath>
</defs>
</svg>
