<svg width="22" height="21" viewBox="0 0 22 21" fill="none" xmlns="http://www.w3.org/2000/svg">
<path d="M11 0C8.34205 0 6.1875 2.20352 6.1875 4.92187C6.1875 7.11953 9.33281 11.125 10.5378 12.5789C10.7819 12.8734 11.2185 12.8734 11.4622 12.5789C12.6672 11.125 15.8125 7.11953 15.8125 4.92187C15.8125 2.20352 13.658 0 11 0ZM11 6.5625C10.1139 6.5625 9.39583 5.82812 9.39583 4.92187C9.39583 4.01562 10.1139 3.28125 11 3.28125C11.8861 3.28125 12.6042 4.01562 12.6042 4.92187C12.6042 5.82812 11.8861 6.5625 11 6.5625ZM0.768472 8.43555C0.541665 8.52832 0.347237 8.68847 0.210264 8.89533C0.0732908 9.10218 5.43204e-05 9.34627 0 9.59609L0 19.3742C0 19.8164 0.436563 20.1187 0.837986 19.9547L6.11111 17.5V8.39531C5.77347 7.77109 5.49733 7.16328 5.29948 6.58203L0.768472 8.43555ZM11 14.0496C10.4626 14.0496 9.95424 13.8082 9.60552 13.3871C8.85462 12.4809 8.05597 11.4488 7.33333 10.3902V17.4996L14.6667 19.9996V10.3906C13.944 11.4488 13.1458 12.4813 12.3945 13.3875C12.0458 13.8082 11.5374 14.0496 11 14.0496ZM21.162 6.29531L15.8889 8.75V20L21.2315 17.8145C21.4584 17.7217 21.6528 17.5616 21.7898 17.3547C21.9268 17.1479 22 16.9037 22 16.6539V6.87578C22 6.43359 21.5634 6.13125 21.162 6.29531Z" fill="#DEE6FE"/>
</svg>
