<svg width="23" height="16" viewBox="0 0 23 16" fill="none" xmlns="http://www.w3.org/2000/svg">
<path d="M3.3 6.85714C4.51344 6.85714 5.5 5.83214 5.5 4.57143C5.5 3.31071 4.51344 2.28571 3.3 2.28571C2.08656 2.28571 1.1 3.31071 1.1 4.57143C1.1 5.83214 2.08656 6.85714 3.3 6.85714ZM18.7 6.85714C19.9134 6.85714 20.9 5.83214 20.9 4.57143C20.9 3.31071 19.9134 2.28571 18.7 2.28571C17.4866 2.28571 16.5 3.31071 16.5 4.57143C16.5 5.83214 17.4866 6.85714 18.7 6.85714ZM19.8 8H17.6C16.995 8 16.4484 8.25357 16.0497 8.66429C17.435 9.45357 18.4181 10.8786 18.6313 12.5714H20.9C21.5084 12.5714 22 12.0607 22 11.4286V10.2857C22 9.025 21.0134 8 19.8 8ZM11 8C13.1278 8 14.85 6.21071 14.85 4C14.85 1.78929 13.1278 0 11 0C8.87219 0 7.15 1.78929 7.15 4C7.15 6.21071 8.87219 8 11 8ZM13.64 9.14286H13.3547C12.6397 9.5 11.8456 9.71429 11 9.71429C10.1544 9.71429 9.36375 9.5 8.64531 9.14286H8.36C6.17375 9.14286 4.4 10.9857 4.4 13.2571V14.2857C4.4 15.2321 5.13906 16 6.05 16H15.95C16.8609 16 17.6 15.2321 17.6 14.2857V13.2571C17.6 10.9857 15.8262 9.14286 13.64 9.14286ZM5.95031 8.66429C5.55156 8.25357 5.005 8 4.4 8H2.2C0.986563 8 0 9.025 0 10.2857V11.4286C0 12.0607 0.491562 12.5714 1.1 12.5714H3.36531C3.58188 10.8786 4.565 9.45357 5.95031 8.66429Z" fill="#DEE6FE"/>
</svg>
